<svg width="161" height="161" viewBox="0 0 161 161" fill="none" xmlns="http://www.w3.org/2000/svg">
<circle cx="80.5" cy="80.5" r="80" fill="#E0EBFF"/>
<path d="M134.325 81.3329C134.68 80.0166 136.629 80.0166 136.984 81.3329L137.169 82.0227C137.298 82.5005 137.695 82.8691 138.197 82.9776L138.584 83.0613C140.012 83.37 140.012 85.3214 138.584 85.6301L138.197 85.7138C137.695 85.8223 137.298 86.1909 137.169 86.6687L136.984 87.3585C136.629 88.6748 134.68 88.6748 134.325 87.3585L134.139 86.6687C134.011 86.1909 133.614 85.8223 133.112 85.7138L132.725 85.6301C131.297 85.3214 131.297 83.37 132.725 83.0613L133.112 82.9776C133.614 82.8691 134.011 82.5005 134.139 82.0227L134.325 81.3329Z" fill="#0A2FFF"/>
<ellipse cx="141.808" cy="72.3457" rx="1.9999" ry="2" fill="#85A3FF"/>
<path d="M74.8387 9.6568C75.2822 8.01153 77.7182 8.01154 78.1616 9.65681L78.394 10.5191C78.5549 11.1163 79.0506 11.5771 79.678 11.7127L80.1617 11.8173C81.9465 12.2032 81.9465 14.6425 80.1617 15.0284L79.678 15.133C79.0506 15.2686 78.5549 15.7294 78.394 16.3266L78.1616 17.1889C77.7182 18.8342 75.2822 18.8342 74.8387 17.1889L74.6064 16.3266C74.4454 15.7294 73.9498 15.2686 73.3223 15.133L72.8386 15.0284C71.0538 14.6425 71.0538 12.2032 72.8386 11.8173L73.3223 11.7127C73.9498 11.5771 74.4454 11.1163 74.6064 10.5191L74.8387 9.6568Z" fill="#85A3FF"/>
<circle cx="87.5" cy="20.8076" r="2" fill="#0A2FFF"/>
<circle cx="17.1162" cy="56.1924" r="2" fill="#C2D4FF"/>
<g opacity="0.5" filter="url(#filter0_f_953_1687)">
<rect x="16.5" y="69.5" width="100" height="25" rx="4" fill="#0014CC"/>
</g>
<rect x="16.5" y="66.5" width="100" height="28" rx="4" fill="white"/>
<rect x="46.5" y="72.5" width="28" height="6" rx="1" fill="#85A3FF"/>
<rect x="46.5" y="82.5" width="64" height="6" rx="1" fill="#E0EBFF"/>
<ellipse cx="31.5" cy="80.5002" rx="9" ry="9.00016" fill="#0014CC"/>
<path fill-rule="evenodd" clip-rule="evenodd" d="M31.502 75.675C31.6724 75.675 31.8282 75.7713 31.9044 75.9238L33.1754 78.4656L36.1953 78.9302C36.3629 78.956 36.5018 79.0738 36.5546 79.235C36.6073 79.3962 36.565 79.5733 36.4451 79.6932L34.3564 81.7819L34.8217 84.8065C34.8475 84.9742 34.7768 85.1421 34.6388 85.2408C34.5009 85.3396 34.3192 85.3524 34.1688 85.2739L31.502 83.8825L28.8351 85.2739C28.6847 85.3524 28.503 85.3396 28.3651 85.2408C28.2271 85.1421 28.1564 84.9742 28.1822 84.8065L28.6475 81.7819L26.5588 79.6932C26.4389 79.5733 26.3966 79.3962 26.4493 79.235C26.5021 79.0738 26.641 78.956 26.8086 78.9302L29.8285 78.4656L31.0995 75.9238C31.1757 75.7713 31.3315 75.675 31.502 75.675ZM31.502 77.1313L30.5295 79.0763C30.4642 79.2068 30.3397 79.2976 30.1954 79.3198L27.8231 79.6847L29.4452 81.3068C29.5465 81.4081 29.5935 81.5517 29.5717 81.6934L29.2069 84.0648L31.2938 82.976C31.4242 82.9079 31.5797 82.9079 31.7101 82.976L33.797 84.0648L33.4322 81.6934C33.4104 81.5517 33.4574 81.4081 33.5587 81.3068L35.1808 79.6847L32.8085 79.3198C32.6643 79.2976 32.5397 79.2068 32.4744 79.0763L31.502 77.1313Z" fill="#F8F9FB"/>
<g opacity="0.5" filter="url(#filter1_f_953_1687)">
<rect x="33.5" y="103.5" width="100" height="25" rx="4" fill="#0014CC"/>
</g>
<rect x="33.5" y="100.5" width="100" height="28" rx="4" fill="white"/>
<rect x="63.5" y="106.5" width="28" height="6" rx="1" fill="#85A3FF"/>
<rect x="63.5" y="116.5" width="64" height="6" rx="1" fill="#E0EBFF"/>
<ellipse cx="48.5" cy="114.5" rx="9" ry="9.00016" fill="#0014CC"/>
<path fill-rule="evenodd" clip-rule="evenodd" d="M48.502 109.675C48.6724 109.675 48.8282 109.771 48.9044 109.924L50.1754 112.466L53.1953 112.93C53.3629 112.956 53.5018 113.074 53.5546 113.235C53.6073 113.396 53.565 113.573 53.4451 113.693L51.3564 115.782L51.8217 118.807C51.8475 118.974 51.7768 119.142 51.6388 119.241C51.5009 119.34 51.3192 119.352 51.1688 119.274L48.502 117.883L45.8351 119.274C45.6847 119.352 45.503 119.34 45.3651 119.241C45.2271 119.142 45.1564 118.974 45.1822 118.807L45.6475 115.782L43.5588 113.693C43.4389 113.573 43.3966 113.396 43.4493 113.235C43.5021 113.074 43.641 112.956 43.8086 112.93L46.8285 112.466L48.0995 109.924C48.1757 109.771 48.3315 109.675 48.502 109.675ZM48.502 111.131L47.5295 113.076C47.4642 113.207 47.3397 113.298 47.1954 113.32L44.8231 113.685L46.4452 115.307C46.5465 115.408 46.5935 115.552 46.5717 115.693L46.2069 118.065L48.2938 116.976C48.4242 116.908 48.5797 116.908 48.7101 116.976L50.797 118.065L50.4322 115.693C50.4104 115.552 50.4574 115.408 50.5587 115.307L52.1808 113.685L49.8085 113.32C49.6643 113.298 49.5397 113.207 49.4744 113.076L48.502 111.131Z" fill="#F8F9FB"/>
<g opacity="0.5" filter="url(#filter2_f_953_1687)">
<rect x="33.5" y="35.5" width="100" height="25" rx="4" fill="#0014CC"/>
</g>
<rect x="33.5" y="32.5" width="100" height="28" rx="4" fill="white"/>
<rect x="63.5" y="38.5" width="28" height="6" rx="1" fill="#85A3FF"/>
<rect x="63.5" y="48.5" width="64" height="6" rx="1" fill="#E0EBFF"/>
<ellipse cx="48.5" cy="46.5002" rx="9" ry="9.00016" fill="#0014CC"/>
<path fill-rule="evenodd" clip-rule="evenodd" d="M48.502 41.675C48.6724 41.675 48.8282 41.7713 48.9044 41.9238L50.1754 44.4656L53.1953 44.9302C53.3629 44.956 53.5018 45.0738 53.5546 45.235C53.6073 45.3962 53.565 45.5733 53.4451 45.6932L51.3564 47.7819L51.8217 50.8065C51.8475 50.9742 51.7768 51.1421 51.6388 51.2408C51.5009 51.3396 51.3192 51.3524 51.1688 51.2739L48.502 49.8825L45.8351 51.2739C45.6847 51.3524 45.503 51.3396 45.3651 51.2408C45.2271 51.1421 45.1564 50.9742 45.1822 50.8065L45.6475 47.7819L43.5588 45.6932C43.4389 45.5733 43.3966 45.3962 43.4493 45.235C43.5021 45.0738 43.641 44.956 43.8086 44.9302L46.8285 44.4656L48.0995 41.9238C48.1757 41.7713 48.3315 41.675 48.502 41.675ZM48.502 43.1313L47.5295 45.0763C47.4642 45.2068 47.3397 45.2976 47.1954 45.3198L44.8231 45.6847L46.4452 47.3068C46.5465 47.4081 46.5935 47.5517 46.5717 47.6934L46.2069 50.0648L48.2938 48.976C48.4242 48.9079 48.5797 48.9079 48.7101 48.976L50.797 50.0648L50.4322 47.6934C50.4104 47.5517 50.4574 47.4081 50.5587 47.3068L52.1808 45.6847L49.8085 45.3198C49.6643 45.2976 49.5397 45.2068 49.4744 45.0763L48.502 43.1313Z" fill="#F8F9FB"/>
<circle cx="80.5" cy="144.039" r="3" fill="#85A3FF"/>
<defs>
<filter id="filter0_f_953_1687" x="6.5" y="59.5" width="120" height="45" filterUnits="userSpaceOnUse" color-interpolation-filters="sRGB">
<feFlood flood-opacity="0" result="BackgroundImageFix"/>
<feBlend mode="normal" in="SourceGraphic" in2="BackgroundImageFix" result="shape"/>
<feGaussianBlur stdDeviation="5" result="effect1_foregroundBlur_953_1687"/>
</filter>
<filter id="filter1_f_953_1687" x="23.5" y="93.5" width="120" height="45" filterUnits="userSpaceOnUse" color-interpolation-filters="sRGB">
<feFlood flood-opacity="0" result="BackgroundImageFix"/>
<feBlend mode="normal" in="SourceGraphic" in2="BackgroundImageFix" result="shape"/>
<feGaussianBlur stdDeviation="5" result="effect1_foregroundBlur_953_1687"/>
</filter>
<filter id="filter2_f_953_1687" x="23.5" y="25.5" width="120" height="45" filterUnits="userSpaceOnUse" color-interpolation-filters="sRGB">
<feFlood flood-opacity="0" result="BackgroundImageFix"/>
<feBlend mode="normal" in="SourceGraphic" in2="BackgroundImageFix" result="shape"/>
<feGaussianBlur stdDeviation="5" result="effect1_foregroundBlur_953_1687"/>
</filter>
</defs>
</svg>
