<svg width="427" height="90" viewBox="0 0 427 90" fill="none" xmlns="http://www.w3.org/2000/svg">
<path d="M0 36.6C0 33 0.500002 29.4 1.6 25.9C2.7 22.4 4.3 19 6.4 15.9C8.5 12.8 11.1 10.1 14 7.7C16.9 5.3 20.4 3.5 24.3 2.1C28.3 0.699998 32.5 0 37 0C41.2 0 45.2 0.599994 49 1.89999C52.8 3.09999 56 4.8 58.7 6.7C61.4 8.7 63.7 10.9 65.8 13.5C67.9 16 69.5 18.5 70.6 21C71.7 23.5 72.5 25.9 72.9 28.2H54C53.6 27.1 53 26 52.4 24.9C51.8 23.8 50.9 22.7 49.9 21.6C48.9 20.5 47.8 19.5 46.5 18.7C45.3 17.9 43.8 17.2 42.2 16.7C40.5 16.2 38.8 15.9 36.9 15.9C34 15.9 31.3 16.5 28.9 17.7C26.5 18.9 24.5 20.5 22.9 22.5C21.4 24.5 20.2 26.7 19.3 29.1C18.4 31.5 18 34 18 36.6C18 40.2 18.7 43.6 20.2 46.8C21.7 50 23.9 52.6 26.9 54.6C29.9 56.6 33.2 57.7 37 57.7C39.1 57.7 41.1 57.4 43 56.7C44.9 56 46.4 55.2 47.5 54.3C48.6 53.4 49.7 52.3 50.8 51C51.8 49.7 52.5 48.7 52.9 48C53.3 47.3 53.6 46.6 54 45.8H72.9C70.8 54.1 66.5 60.8 59.9 65.9C53.3 71 45.7 73.5 37.1 73.5C31.7 73.5 26.7 72.5 22 70.4C17.3 68.4 13.4 65.6 10.2 62.2C7 58.8 4.5 54.9 2.7 50.4C0.900001 45.9 0 41.3 0 36.6Z" fill="white"/>
<path d="M76.7 45.5C76.7 41.3 77.4 37.4 78.9 33.7999C80.3 30.1999 82.3 27.1999 84.8 24.7999C87.3 22.3999 90.1 20.5 93.3 19.2C96.5 17.9 99.9 17.2 103.4 17.2C107.3 17.2 110.6 17.8999 113.2 19.3999C115.8 20.8999 117.7 22.6 118.9 24.6H119.1V19H135V72H119.1V66.3H118.9C117.6 68.8 115.6 70.5999 112.7 71.8999C109.8 73.1999 106.7 73.8 103.4 73.8C99.3 73.8 95.6 73 92.2 71.5C88.8 70 86 67.9 83.8 65.3C81.6 62.7 79.9 59.7 78.6 56.2999C77.3 52.8999 76.7 49.3 76.7 45.5ZM92.6 45.6C92.6 46.7 92.7 47.7999 93 48.8999C93.3 49.9999 93.8 51.1999 94.4 52.3999C95.1 53.5999 95.9 54.7 96.9 55.7C97.9 56.7 99.1 57.3999 100.7 58.0999C102.2 58.6999 103.9 59 105.7 59C107.6 59 109.3 58.6999 110.9 58.0999C112.5 57.4999 113.7 56.7 114.7 55.7C115.7 54.7 116.5 53.5999 117.2 52.3999C117.9 51.1999 118.3 50 118.6 48.7999C118.9 47.5999 119 46.4999 119 45.3999C119 43.1999 118.5 41 117.6 39.1C116.7 37.1 115.1 35.4 113.1 34C111 32.6 108.5 31.8999 105.7 31.8999C103.5 31.8999 101.6 32.3 99.8 33.2C98.1 34.1 96.7 35.2 95.7 36.5C94.7 37.9 93.9 39.2999 93.4 40.8999C92.8 42.4999 92.6 44.1 92.6 45.6Z" fill="white"/>
<path d="M140.1 31.0001V19.0001H147.9V1.30005H163.8V19.0001H171.4V31.0001H163.8V72.0001H147.9V31.0001H140.1Z" fill="white"/>
<path d="M173 45.5C173 41.3 173.7 37.4 175.2 33.7999C176.7 30.1999 178.6 27.1999 181.1 24.7999C183.6 22.3999 186.4 20.5 189.6 19.2C192.8 17.9 196.2 17.2 199.7 17.2C203.6 17.2 206.9 17.8999 209.5 19.3999C212.1 20.8999 214 22.6 215.2 24.6H215.4V19H231.3V72H215.4V66.3H215.2C213.9 68.8 211.9 70.5999 209 71.8999C206.1 73.1999 203 73.8 199.7 73.8C195.6 73.8 191.9 73 188.5 71.5C185.1 70 182.3 67.9 180.1 65.3C177.9 62.7 176.2 59.7 174.9 56.2999C173.6 52.8999 173 49.3 173 45.5ZM188.9 45.6C188.9 46.7 189 47.7999 189.3 48.8999C189.6 49.9999 190.1 51.1999 190.7 52.3999C191.4 53.5999 192.2 54.7 193.2 55.7C194.2 56.7 195.4 57.3999 197 58.0999C198.5 58.6999 200.2 59 202 59C203.9 59 205.6 58.6999 207.2 58.0999C208.8 57.4999 210 56.7 211 55.7C212 54.7 212.8 53.5999 213.5 52.3999C214.2 51.1999 214.6 50 214.9 48.7999C215.2 47.5999 215.3 46.4999 215.3 45.3999C215.3 43.1999 214.8 41 213.9 39.1C213 37.1 211.4 35.4 209.4 34C207.3 32.6 204.8 31.8999 202 31.8999C199.8 31.8999 197.9 32.3 196.1 33.2C194.4 34.1 193 35.2 192 36.5C191 37.9 190.2 39.2999 189.7 40.8999C189.1 42.4999 188.9 44.1 188.9 45.6Z" fill="white"/>
<path d="M240.6 72.0001V1.30005H256.5V72.0001H240.6Z" fill="white"/>
<path d="M260.1 19H277L287.6 49.8H287.8L297.9 19H314.7L288.2 89.7H271.4L279.8 69.4L260.1 19Z" fill="white"/>
<path d="M314.3 56.2001H330.1C330.2 57.1001 330.5 57.9001 330.9 58.6001C331.3 59.3001 331.8 59.8001 332.3 60.1001C332.8 60.4001 333.3 60.7001 333.9 60.8001C334.5 61.0001 335 61.1001 335.3 61.1001C335.6 61.1001 335.9 61.1001 336.1 61.1001C337.5 61.1001 338.8 60.7001 339.9 59.9001C341 59.1001 341.6 58.1001 341.6 56.9001C341.6 56.3001 341.5 55.8001 341.4 55.4001C341.3 55.0001 341 54.5001 340.6 54.1001C340.2 53.7001 339.8 53.4001 339.3 53.1001C338.9 52.8001 338.2 52.5001 337.3 52.1001C336.4 51.7001 335.6 51.4001 334.8 51.1001C334.1 50.8001 333 50.4001 331.5 49.9001C330 49.4001 328.7 48.9001 327.6 48.4001C323.9 47.2001 320.8 45.5001 318.5 43.1001C316.2 40.8001 315 37.9001 315 34.5001C315 31.1001 315.9 28.1001 317.8 25.4001C319.7 22.7001 322.2 20.6001 325.3 19.2001C328.4 17.8001 331.8 17.1001 335.5 17.1001C337.1 17.1001 338.6 17.2001 340.2 17.5001C341.8 17.7001 343.5 18.3001 345.3 19.0001C347.1 19.7001 348.7 20.7001 350.1 21.9001C351.5 23.1001 352.8 24.7001 353.8 26.7001C354.9 28.8001 355.5 31.1001 355.8 33.8001H340.2C340.2 33.3001 340.1 32.9001 340 32.6001C339.9 32.3001 339.7 31.9001 339.4 31.4001C339.1 30.9001 338.6 30.5001 337.9 30.2001C337.2 29.9001 336.3 29.8001 335.2 29.8001C333.7 29.8001 332.5 30.2001 331.8 30.9001C331.1 31.6001 330.7 32.5001 330.7 33.3001C330.7 34.6001 331.4 35.7001 332.9 36.5001C334.3 37.4001 336.3 38.2001 338.9 39.0001C340.2 39.3001 341.2 39.6001 341.9 39.8001C342.6 40.0001 343.6 40.3001 344.8 40.7001C346 41.1001 347 41.5001 347.7 41.8001C348.4 42.1001 349.3 42.6001 350.3 43.1001C351.3 43.6001 352.1 44.2001 352.7 44.7001C353.3 45.2001 353.9 45.9001 354.6 46.7001C355.3 47.5001 355.8 48.3001 356.1 49.1001C356.5 49.9001 356.8 50.9001 357 52.0001C357.2 53.1001 357.4 54.3001 357.4 55.5001C357.4 59.1001 356.4 62.3001 354.4 65.1001C352.4 67.9001 349.8 70.0001 346.6 71.4001C343.4 72.8001 339.8 73.5001 335.8 73.5001C334.1 73.5001 332.3 73.3001 330.6 73.0001C328.9 72.7001 327.1 72.1001 325.2 71.3001C323.3 70.5001 321.6 69.4001 320.1 68.1001C318.6 66.8001 317.3 65.1001 316.3 63.0001C315.3 61.3001 314.6 58.9001 314.3 56.2001Z" fill="white"/>
<path d="M359 31.0001V19.0001H366.8V1.30005H382.7V19.0001H390.3V31.0001H382.7V72.0001H366.8V31.0001H359Z" fill="white"/>
<g clip-path="url(#clip0_825_22838)">
<path d="M412.505 74.009C420.515 74.009 427.009 67.5151 427.009 59.5045C427.009 51.4939 420.515 45 412.505 45C404.494 45 398 51.4939 398 59.5045C398 67.5151 404.494 74.009 412.505 74.009Z" fill="#008CAB"/>
</g>
<defs>
<clipPath id="clip0_825_22838">
<rect width="29" height="29" fill="white" transform="translate(398 45)"/>
</clipPath>
</defs>
</svg>
